<svg width="291" height="187" viewBox="0 0 291 187" fill="none" xmlns="http://www.w3.org/2000/svg">
<path fill-rule="evenodd" clip-rule="evenodd" d="M141.503 187C140.257 138.63 42.8495 43.3843 3.73688 3.98961C4.23513 91.2563 13.7019 132.396 20.6774 187H0V0.000282884H27.6529C64.7725 38.1483 108.619 80.5349 139.759 127.41C136.77 75.2989 129.794 41.639 124.563 0.000282884H145.24V187H141.503ZM165.938 0V107.961C202.31 73.0547 236.44 38.6467 269.823 0H290.5L201.064 81.532C208.04 78.7893 215.763 77.044 223.236 78.0413C233.7 79.0387 240.426 83.776 245.408 90.7573C260.854 111.452 268.079 152.343 282.777 178.273C285.019 181.764 287.76 185.504 290.5 187H272.563C262.349 187 261.352 182.263 257.615 174.533C248.647 154.337 239.928 117.685 227.72 98.4867C217.008 81.7813 202.31 80.5347 187.86 93.7493L165.938 113.696V187H145.26V0H165.938Z" fill="black"/>
</svg>
