<svg width="783" height="328" viewBox="0 0 783 328" fill="none" xmlns="http://www.w3.org/2000/svg">
<path d="M618.527 220H620.477V280C620.477 295.7 617.377 307.25 611.177 314.65C604.977 321.95 596.877 325.6 586.877 325.6C580.577 325.6 575.227 325.05 570.827 323.95C566.427 322.75 562.277 320.6 558.377 317.5C550.377 311.3 546.377 298.8 546.377 280V220H558.827V279.85C558.827 298.05 561.577 310.2 567.077 316.3C569.877 319.3 572.777 321.35 575.777 322.45C578.877 323.55 582.577 324.1 586.877 324.1C596.477 324.1 604.127 320.6 609.827 313.6C615.627 306.5 618.527 295.25 618.527 279.85V220ZM594.077 191.35L604.877 191.05L589.127 212.5H587.177L594.077 191.35Z" fill="black"/>
<path d="M420.219 221.2C431.819 220.4 442.069 220 450.969 220C475.669 220 488.019 228.25 488.019 244.75C488.019 251.75 486.319 258 482.919 263.5C479.519 269 473.669 272.65 465.369 274.45L495.369 325H481.419L452.019 275.35H432.669V325H420.219V221.2ZM450.969 221.5C445.169 221.5 439.069 221.85 432.669 222.55V273.85H454.869C468.969 273.25 476.019 263.65 476.019 245.05C476.019 237.45 473.919 231.65 469.719 227.65C465.519 223.55 459.269 221.5 450.969 221.5Z" fill="black"/>
<path d="M356.11 220V221.5H308.86V266.5H352.66V268H308.86V323.5H359.41V325H296.41V220H356.11Z" fill="black"/>
<path d="M168.5 221.2C180.1 220.4 190.3 220 199.1 220C223.9 220 236.3 228.75 236.3 246.25C236.3 254.35 234.2 261.45 230 267.55C227.8 270.85 224.4 273.5 219.8 275.5C215.2 277.4 209.65 278.35 203.15 278.35H180.95V325H168.5V221.2ZM199.25 221.5C193.45 221.5 187.35 221.85 180.95 222.55V276.85H203.15C217.25 276.25 224.3 266.15 224.3 246.55C224.3 238.55 222.2 232.4 218 228.1C213.8 223.7 207.55 221.5 199.25 221.5Z" fill="black"/>
<path d="M618.527 220V279.85C618.527 295.249 615.627 306.5 609.827 313.6C604.127 320.6 596.477 324.1 586.877 324.1C582.577 324.1 578.877 323.55 575.777 322.45C572.965 321.419 570.24 319.553 567.604 316.852L567.077 316.3C561.749 310.39 559.001 298.803 558.835 281.538L558.827 279.85V220H546.377V280L546.389 281.744C546.631 299.575 550.627 311.494 558.377 317.5C562.277 320.6 566.427 322.75 570.827 323.95C575.227 325.05 580.577 325.6 586.877 325.6C596.877 325.6 604.977 321.95 611.177 314.65C617.377 307.25 620.477 295.7 620.477 280V220H618.527ZM590.14 214.5H584.421L592.612 189.39L608.909 188.938L590.14 214.5ZM594.077 191.35L587.177 212.5H589.127L604.877 191.05L594.077 191.35ZM622.477 280L622.468 281.479C622.278 296.649 619.143 308.257 612.71 315.935L612.701 315.944C606.102 323.714 597.434 327.6 586.877 327.6C580.872 327.6 575.643 327.11 571.217 326.1L570.342 325.891L570.321 325.885L570.301 325.88C565.623 324.604 561.239 322.325 557.151 319.08C548.372 312.276 544.377 298.921 544.377 280V218H560.827V279.85L560.835 281.521C560.915 289.785 561.592 296.658 562.84 302.171C564.173 308.063 566.125 312.253 568.553 314.95C571.193 317.776 573.839 319.608 576.468 320.572C579.294 321.572 582.749 322.1 586.877 322.1C595.919 322.1 602.983 318.838 608.276 312.337L608.278 312.335C613.646 305.765 616.527 295.076 616.527 279.85V218H622.477V280Z" fill="black"/>
<path d="M418.219 219.333L420.081 219.205C431.714 218.403 442.011 218 450.969 218V220C442.069 220 431.819 220.4 420.219 221.2V325H432.669V275.35H452.019L481.419 325H495.369L465.369 274.45C473.41 272.706 479.151 269.226 482.593 264.01L482.919 263.5C486.213 258.172 487.911 252.14 488.014 245.404L488.019 244.75C488.019 228.508 476.052 220.26 452.117 220.006L450.969 220V218C463.478 218 473.211 220.078 479.867 224.524C486.666 229.066 490.019 235.919 490.019 244.75L490.014 245.436C489.905 252.502 488.119 258.892 484.62 264.552C481.251 270.002 475.773 273.68 468.46 275.74L498.882 327H480.278L450.879 277.35H434.669V327H418.219V219.333ZM474.019 245.05C474.019 238.045 472.153 232.941 468.681 229.433L468.34 229.099L468.33 229.09L468.321 229.081C464.626 225.474 458.964 223.5 450.969 223.5C445.788 223.5 440.355 223.786 434.669 224.354V271.85H454.821C461.37 271.563 466.027 269.227 469.119 265.017C472.286 260.704 474.019 254.147 474.019 245.05ZM476.019 245.05C476.019 263.65 468.969 273.249 454.869 273.85H432.669V222.55C439.069 221.85 445.169 221.5 450.969 221.5L451.741 221.506C459.658 221.63 465.65 223.679 469.719 227.65C473.919 231.65 476.019 237.45 476.019 245.05Z" fill="black"/>
<path d="M358.11 218V223.5H310.86V264.5H354.66V270H310.86V321.5H361.41V327H294.41V218H358.11ZM296.41 325H359.41V323.5H308.86V268H352.66V266.5H308.86V221.5H356.11V220H296.41V325Z" fill="black"/>
<path d="M166.5 219.333L168.362 219.205C179.994 218.403 190.242 218 199.1 218C211.674 218 221.463 220.208 228.153 224.929C234.971 229.74 238.3 236.965 238.3 246.25L238.294 247.041C238.161 255.183 235.959 262.421 231.646 268.684C229.183 272.366 225.446 275.226 220.598 277.334L220.58 277.342L220.563 277.349C215.66 279.374 209.836 280.35 203.15 280.35H182.95V327H166.5V219.333ZM222.3 246.55C222.3 239.134 220.42 233.664 216.914 229.86L216.569 229.497L216.562 229.489L216.554 229.48C212.853 225.603 207.209 223.5 199.25 223.5C194.069 223.5 188.636 223.786 182.95 224.354V274.85H203.103C209.613 274.564 214.265 272.131 217.372 267.681C220.561 263.112 222.3 256.163 222.3 246.55ZM224.3 246.55C224.3 266.15 217.25 276.249 203.15 276.85H180.95V222.55C187.35 221.85 193.45 221.5 199.25 221.5C207.55 221.5 213.8 223.7 218 228.1C222.2 232.4 224.3 238.55 224.3 246.55ZM168.5 325H180.95V278.35H203.15C209.244 278.35 214.503 277.515 218.927 275.845L219.8 275.5C224.4 273.5 227.8 270.85 230 267.55C234.069 261.641 236.167 254.793 236.294 247.007L236.3 246.25C236.3 228.75 223.9 220 199.1 220C190.3 220 180.1 220.4 168.5 221.2V325Z" fill="black"/>
<path fill-rule="evenodd" clip-rule="evenodd" d="M141.503 187C140.257 138.629 42.8495 43.384 3.73688 3.98932C4.23513 91.256 13.7019 132.396 20.6774 187H0V0H27.6529C64.7725 38.148 108.619 80.5347 139.759 127.409C136.77 75.2987 129.794 41.6387 124.563 0H145.24V187H141.503ZM339.973 187H317.302L286.411 118.433C286.411 153.34 264.239 187 223.631 187C190.747 187 170.568 163.812 174.055 132.396C176.547 109.457 190.747 88.264 203.203 69.564C218.4 46.8747 229.859 28.1747 233.347 0H256.267L339.973 187ZM236.337 6.73201C232.6 27.4267 223.88 45.3787 213.417 63.8293C202.206 83.776 187.259 108.46 189.75 132.147C192.241 156.831 211.673 174.284 240.572 169.048C265.235 164.809 291.393 129.404 280.681 105.717L236.337 6.73201ZM360.401 0H381.078V183.26C435.138 183.011 460.3 173.536 493.683 166.305V187H360.401V0ZM557.127 187H536.449V109.457L474.168 0H498.084L556.628 102.725C576.309 68.068 590.509 32.164 598.731 0H619.408L557.127 109.457V187ZM658.438 0V107.961C694.81 73.0547 728.94 38.6467 762.323 0H783L693.564 81.532C700.54 78.7893 708.263 77.044 715.736 78.0413C726.2 79.0387 732.926 83.776 737.908 90.7573C753.354 111.452 760.579 152.343 775.277 178.273C777.519 181.764 780.26 185.504 783 187H765.063C754.849 187 753.852 182.263 750.115 174.533C741.147 154.337 732.428 117.685 720.22 98.4867C709.508 81.7813 694.81 80.5347 680.36 93.7493L658.438 113.696V187H637.76V0H658.438Z" fill="black"/>
</svg>
